<svg id="Layer_1" data-name="Layer 1" xmlns="http://www.w3.org/2000/svg" viewBox="0 0 1000 1000"><title>qrzn_favicon</title><path d="M629.55,210.05v71.66h-2q-24.56-46.09-68.59-66t-95.2-19.94q-62.46,0-109,22t-77.3,60.41q-30.7,38.42-46.08,89.58T216,477.26a387.39,387.39,0,0,0,13.83,103.38q13.82,50.19,42,88.56a209.53,209.53,0,0,0,71.17,61.43q43,23,101.34,23a288.53,288.53,0,0,0,51.19-4.59,222.77,222.77,0,0,0,49.15-14.86,183.7,183.7,0,0,0,43-26.11,169.79,169.79,0,0,0,33.77-37.36h2v328H740.13V210.05ZM591.17,609.82q-36.33,51.72-112.1,51.72-39.92,0-67.57-16.4A142.27,142.27,0,0,1,366,602.65q-18-26.08-25.61-59.38a301.55,301.55,0,0,1-7.66-68.06,263.55,263.55,0,0,1,9.21-69.62q9.21-33.81,27.63-59.9a142.66,142.66,0,0,1,46.07-42q27.63-15.86,63.48-15.88,73.73,0,111.07,50.18t37.37,137.18Q627.51,558.15,591.17,609.82Z"/><polygon points="999.98 0 999.98 1000 795.95 1000 795.95 903.87 903.86 903.87 903.86 96.13 96.14 96.13 96.14 903.87 555.2 903.87 555.2 1000 0.02 1000 0.02 0 999.98 0"/></svg>