<svg xmlns="http://www.w3.org/2000/svg" width="61.658" height="27.032" viewBox="0 0 61.658 27.032"><path d="M88.916,106.243h-2.93V97.821h-.051a4.252,4.252,0,0,1-.849.938,4.6,4.6,0,0,1-1.079.655,5.6,5.6,0,0,1-1.234.372,7.252,7.252,0,0,1-1.285.116,5.312,5.312,0,0,1-2.544-.578,5.256,5.256,0,0,1-1.79-1.542,6.749,6.749,0,0,1-1.05-2.224,9.731,9.731,0,0,1-.346-2.6,9.532,9.532,0,0,1,.385-2.75A6.584,6.584,0,0,1,77.3,87.964a5.406,5.406,0,0,1,1.94-1.513,6.352,6.352,0,0,1,2.737-.553,5.723,5.723,0,0,1,2.391.5,3.622,3.622,0,0,1,1.722,1.658h.051v-1.8h2.776ZM78.687,92.912a7.576,7.576,0,0,0,.192,1.713,4.321,4.321,0,0,0,.642,1.491,3.581,3.581,0,0,0,1.144,1.067,3.254,3.254,0,0,0,1.7.411,3.206,3.206,0,0,0,2.814-1.3,5.751,5.751,0,0,0,.912-3.383,5.666,5.666,0,0,0-.934-3.444,3.25,3.25,0,0,0-2.788-1.26,3.143,3.143,0,0,0-1.594.4,3.576,3.576,0,0,0-1.157,1.053,4.749,4.749,0,0,0-.694,1.5A6.617,6.617,0,0,0,78.687,92.912Z" transform="translate(-69.86 -79.211)"/><path d="M279.46,86.282h2.75v2.569h.051a2.95,2.95,0,0,1,.5-1.051,4.89,4.89,0,0,1,.9-.934,4.524,4.524,0,0,1,1.168-.681,3.5,3.5,0,0,1,1.311-.258,6.309,6.309,0,0,1,.707.026l.4.051v2.827q-.311-.051-.63-.09a5.3,5.3,0,0,0-.63-.039,3.372,3.372,0,0,0-1.4.3,3.217,3.217,0,0,0-1.144.873,4.286,4.286,0,0,0-.771,1.427,6.15,6.15,0,0,0-.281,1.95v6.323h-2.93Z" transform="translate(-257.705 -79.237)"/><path d="M385.294,90.5h10.791v2.056l-7.6,8.918h7.993v2.314H384.78v-2.057l7.35-8.918h-6.836Z" transform="translate(-354.826 -83.455)"/><path d="M554.77,86.264h2.776v1.953l.051.051a4.916,4.916,0,0,1,1.748-1.732,4.658,4.658,0,0,1,2.39-.63,4.965,4.965,0,0,1,3.444,1.131,4.33,4.33,0,0,1,1.26,3.391v9.123h-2.932V91.2a3.611,3.611,0,0,0-.668-2.275,2.426,2.426,0,0,0-1.927-.707,3.171,3.171,0,0,0-1.337.27,2.893,2.893,0,0,0-1,.745,3.512,3.512,0,0,0-.641,1.119,4,4,0,0,0-.234,1.362v7.839H554.77Z" transform="translate(-511.583 -79.219)"/><path d="M61.658,27.032H21.76v-2.36H59.3V2.36H2.36V24.673H13.43v2.36H0V0H61.658Z"/></svg>